<svg xmlns="http://www.w3.org/2000/svg" viewBox="0 0 120 150">
<defs>
<linearGradient id="rib-bronze" x1="0" y1="0" x2="1" y2="0">
<stop offset="0" stop-color="#763a1c"/><stop offset="0.5" stop-color="#b06236"/><stop offset="1" stop-color="#763a1c"/>
</linearGradient>
<linearGradient id="rim-bronze" x1="0" y1="0" x2="0" y2="1">
<stop offset="0" stop-color="#d2965a"/><stop offset="1" stop-color="#7e5027"/>
</linearGradient>
<radialGradient id="face-bronze" cx="0.37" cy="0.32" r="0.92"><stop offset="0" stop-color="#f8d8ae"/><stop offset="0.4" stop-color="#df9d56"/><stop offset="0.72" stop-color="#b07033"/><stop offset="1" stop-color="#794c1e"/></radialGradient>
<radialGradient id="shine-bronze" cx="0.5" cy="0.5" r="0.5">
<stop offset="0" stop-color="#ffffff" stop-opacity="0.9"/><stop offset="1" stop-color="#ffffff" stop-opacity="0"/>
</radialGradient>
<filter id="blur-bronze" x="-60%" y="-60%" width="220%" height="220%"><feGaussianBlur stdDeviation="2.4"/></filter>
</defs>
<ellipse cx="60" cy="139" rx="33" ry="6" fill="#000000" opacity="0.13" filter="url(#blur-bronze)"/>
<polygon points="22,3 39,3 60,74 47,74" fill="url(#rib-bronze)"/>
<polygon points="98,3 81,3 60,74 73,74" fill="url(#rib-bronze)"/>
<polygon points="22,3 39,3 60,74 47,74" fill="none" stroke="#000000" stroke-opacity="0.13" stroke-width="0.8"/>
<polygon points="98,3 81,3 60,74 73,74" fill="none" stroke="#000000" stroke-opacity="0.13" stroke-width="0.8"/>
<circle cx="60" cy="94" r="47" fill="url(#rim-bronze)"/>
<circle cx="60" cy="94" r="47" fill="none" stroke="#7e5027" stroke-width="1"/>
<circle cx="60.0" cy="51.6" r="2.0" fill="#c4853f"/><circle cx="67.8" cy="52.3" r="2.0" fill="#c4853f"/><circle cx="75.3" cy="54.5" r="2.0" fill="#c4853f"/><circle cx="82.3" cy="58.0" r="2.0" fill="#c4853f"/><circle cx="88.6" cy="62.7" r="2.0" fill="#c4853f"/><circle cx="93.8" cy="68.4" r="2.0" fill="#c4853f"/><circle cx="98.0" cy="75.1" r="2.0" fill="#c4853f"/><circle cx="100.8" cy="82.4" r="2.0" fill="#c4853f"/><circle cx="102.2" cy="90.1" r="2.0" fill="#c4853f"/><circle cx="102.2" cy="97.9" r="2.0" fill="#c4853f"/><circle cx="100.8" cy="105.6" r="2.0" fill="#c4853f"/><circle cx="98.0" cy="112.9" r="2.0" fill="#c4853f"/><circle cx="93.8" cy="119.6" r="2.0" fill="#c4853f"/><circle cx="88.6" cy="125.3" r="2.0" fill="#c4853f"/><circle cx="82.3" cy="130.0" r="2.0" fill="#c4853f"/><circle cx="75.3" cy="133.5" r="2.0" fill="#c4853f"/><circle cx="67.8" cy="135.7" r="2.0" fill="#c4853f"/><circle cx="60.0" cy="136.4" r="2.0" fill="#c4853f"/><circle cx="52.2" cy="135.7" r="2.0" fill="#c4853f"/><circle cx="44.7" cy="133.5" r="2.0" fill="#c4853f"/><circle cx="37.7" cy="130.0" r="2.0" fill="#c4853f"/><circle cx="31.4" cy="125.3" r="2.0" fill="#c4853f"/><circle cx="26.2" cy="119.6" r="2.0" fill="#c4853f"/><circle cx="22.0" cy="112.9" r="2.0" fill="#c4853f"/><circle cx="19.2" cy="105.6" r="2.0" fill="#c4853f"/><circle cx="17.8" cy="97.9" r="2.0" fill="#c4853f"/><circle cx="17.8" cy="90.1" r="2.0" fill="#c4853f"/><circle cx="19.2" cy="82.4" r="2.0" fill="#c4853f"/><circle cx="22.0" cy="75.1" r="2.0" fill="#c4853f"/><circle cx="26.2" cy="68.4" r="2.0" fill="#c4853f"/><circle cx="31.4" cy="62.7" r="2.0" fill="#c4853f"/><circle cx="37.7" cy="58.0" r="2.0" fill="#c4853f"/><circle cx="44.7" cy="54.5" r="2.0" fill="#c4853f"/><circle cx="52.2" cy="52.3" r="2.0" fill="#c4853f"/>
<circle cx="60" cy="94" r="38.5" fill="url(#face-bronze)"/>
<circle cx="60" cy="94" r="38.5" fill="none" stroke="#7e5027" stroke-width="1.6" stroke-opacity="0.55"/>
<circle cx="60" cy="94" r="30.5" fill="none" stroke="#d2965a" stroke-width="1.1" stroke-opacity="0.45"/>
<ellipse cx="46" cy="79" rx="18" ry="12" fill="url(#shine-bronze)" filter="url(#blur-bronze)" transform="rotate(-30 46 79)"/>
<text x="60.5" y="95.8" text-anchor="middle" dominant-baseline="central" font-family="Arial, Helvetica, sans-serif" font-weight="900" font-size="46" fill="#000000" opacity="0.22">3</text>
<text x="59.3" y="92.6" text-anchor="middle" dominant-baseline="central" font-family="Arial, Helvetica, sans-serif" font-weight="900" font-size="46" fill="#ffffff" opacity="0.5">3</text>
<text x="60" y="94" text-anchor="middle" dominant-baseline="central" font-family="Arial, Helvetica, sans-serif" font-weight="900" font-size="46" fill="#5d3a16">3</text>
</svg>