<svg xmlns="http://www.w3.org/2000/svg" viewBox="0 0 120 150">
<defs>
<linearGradient id="rib-or" x1="0" y1="0" x2="1" y2="0">
<stop offset="0" stop-color="#7d2020"/><stop offset="0.5" stop-color="#c0444a"/><stop offset="1" stop-color="#7d2020"/>
</linearGradient>
<linearGradient id="rim-or" x1="0" y1="0" x2="0" y2="1">
<stop offset="0" stop-color="#ecd06a"/><stop offset="1" stop-color="#9a7a12"/>
</linearGradient>
<radialGradient id="face-or" cx="0.37" cy="0.32" r="0.92"><stop offset="0" stop-color="#fff8d4"/><stop offset="0.4" stop-color="#f5d24e"/><stop offset="0.72" stop-color="#d9a91b"/><stop offset="1" stop-color="#9b7908"/></radialGradient>
<radialGradient id="shine-or" cx="0.5" cy="0.5" r="0.5">
<stop offset="0" stop-color="#ffffff" stop-opacity="0.9"/><stop offset="1" stop-color="#ffffff" stop-opacity="0"/>
</radialGradient>
<filter id="blur-or" x="-60%" y="-60%" width="220%" height="220%"><feGaussianBlur stdDeviation="2.4"/></filter>
</defs>
<ellipse cx="60" cy="139" rx="33" ry="6" fill="#000000" opacity="0.13" filter="url(#blur-or)"/>
<polygon points="22,3 39,3 60,74 47,74" fill="url(#rib-or)"/>
<polygon points="98,3 81,3 60,74 73,74" fill="url(#rib-or)"/>
<polygon points="22,3 39,3 60,74 47,74" fill="none" stroke="#000000" stroke-opacity="0.13" stroke-width="0.8"/>
<polygon points="98,3 81,3 60,74 73,74" fill="none" stroke="#000000" stroke-opacity="0.13" stroke-width="0.8"/>
<circle cx="60" cy="94" r="47" fill="url(#rim-or)"/>
<circle cx="60" cy="94" r="47" fill="none" stroke="#9a7a12" stroke-width="1"/>
<circle cx="60.0" cy="51.6" r="2.0" fill="#caa221"/><circle cx="67.8" cy="52.3" r="2.0" fill="#caa221"/><circle cx="75.3" cy="54.5" r="2.0" fill="#caa221"/><circle cx="82.3" cy="58.0" r="2.0" fill="#caa221"/><circle cx="88.6" cy="62.7" r="2.0" fill="#caa221"/><circle cx="93.8" cy="68.4" r="2.0" fill="#caa221"/><circle cx="98.0" cy="75.1" r="2.0" fill="#caa221"/><circle cx="100.8" cy="82.4" r="2.0" fill="#caa221"/><circle cx="102.2" cy="90.1" r="2.0" fill="#caa221"/><circle cx="102.2" cy="97.9" r="2.0" fill="#caa221"/><circle cx="100.8" cy="105.6" r="2.0" fill="#caa221"/><circle cx="98.0" cy="112.9" r="2.0" fill="#caa221"/><circle cx="93.8" cy="119.6" r="2.0" fill="#caa221"/><circle cx="88.6" cy="125.3" r="2.0" fill="#caa221"/><circle cx="82.3" cy="130.0" r="2.0" fill="#caa221"/><circle cx="75.3" cy="133.5" r="2.0" fill="#caa221"/><circle cx="67.8" cy="135.7" r="2.0" fill="#caa221"/><circle cx="60.0" cy="136.4" r="2.0" fill="#caa221"/><circle cx="52.2" cy="135.7" r="2.0" fill="#caa221"/><circle cx="44.7" cy="133.5" r="2.0" fill="#caa221"/><circle cx="37.7" cy="130.0" r="2.0" fill="#caa221"/><circle cx="31.4" cy="125.3" r="2.0" fill="#caa221"/><circle cx="26.2" cy="119.6" r="2.0" fill="#caa221"/><circle cx="22.0" cy="112.9" r="2.0" fill="#caa221"/><circle cx="19.2" cy="105.6" r="2.0" fill="#caa221"/><circle cx="17.8" cy="97.9" r="2.0" fill="#caa221"/><circle cx="17.8" cy="90.1" r="2.0" fill="#caa221"/><circle cx="19.2" cy="82.4" r="2.0" fill="#caa221"/><circle cx="22.0" cy="75.1" r="2.0" fill="#caa221"/><circle cx="26.2" cy="68.4" r="2.0" fill="#caa221"/><circle cx="31.4" cy="62.7" r="2.0" fill="#caa221"/><circle cx="37.7" cy="58.0" r="2.0" fill="#caa221"/><circle cx="44.7" cy="54.5" r="2.0" fill="#caa221"/><circle cx="52.2" cy="52.3" r="2.0" fill="#caa221"/>
<circle cx="60" cy="94" r="38.5" fill="url(#face-or)"/>
<circle cx="60" cy="94" r="38.5" fill="none" stroke="#9a7a12" stroke-width="1.6" stroke-opacity="0.55"/>
<circle cx="60" cy="94" r="30.5" fill="none" stroke="#ecd06a" stroke-width="1.1" stroke-opacity="0.45"/>
<ellipse cx="46" cy="79" rx="18" ry="12" fill="url(#shine-or)" filter="url(#blur-or)" transform="rotate(-30 46 79)"/>
<text x="60.5" y="95.8" text-anchor="middle" dominant-baseline="central" font-family="Arial, Helvetica, sans-serif" font-weight="900" font-size="46" fill="#000000" opacity="0.22">1</text>
<text x="59.3" y="92.6" text-anchor="middle" dominant-baseline="central" font-family="Arial, Helvetica, sans-serif" font-weight="900" font-size="46" fill="#ffffff" opacity="0.5">1</text>
<text x="60" y="94" text-anchor="middle" dominant-baseline="central" font-family="Arial, Helvetica, sans-serif" font-weight="900" font-size="46" fill="#7a5c06">1</text>
</svg>